<?xml version="1.0" encoding="UTF-8"?>
<svg id="Lager_1" data-name="Lager 1" xmlns="http://www.w3.org/2000/svg" version="1.1" viewBox="0 0 32 32">
  <defs>
    <style>
      .cls-1 {
        fill: #3b353f;
      }

      .cls-1, .cls-2 {
        stroke-width: 0px;
      }

      .cls-2 {
        fill: #732c5d;
      }
    </style>
  </defs>
  <path class="cls-2" d="M8.2,5.65v7.62h1.14c.4,0,.75-.06,1.03-.17.28-.11.53-.41.76-.89.22-.49.35-1.25.38-2.28h.49v7.53h-.49c-.05-1.43-.25-2.38-.59-2.83-.34-.46-.87-.68-1.57-.68h-1.14v8.13h2.58c1.46,0,2.48-.43,3.04-1.29.56-.86.9-2.19,1.01-3.98h.48l-.12,5.95H3.95v-.68h2.01V5.65h-2.01v-.68h10.78l.22,4.75h-.48c-.16-1.44-.5-2.48-1.01-3.11s-1.36-.95-2.55-.95h-2.69Z"/>
  <path class="cls-1" d="M25.53,15.51h-2.25v-.54h4.91v.54h-2.16v8.61c0,1.25-.09,2.17-.27,2.76-.18.59-.51,1.09-.99,1.5s-1.05.7-1.72.88c-.67.18-1.36.28-2.07.28-1.5,0-2.61-.24-3.3-.73-.7-.49-1.13-1.09-1.29-1.8s-.24-1.67-.24-2.88v-8.61h-1.99v-.54h6.58v.54h-2.17v8.36c0,1.15.05,2.06.15,2.72s.38,1.21.83,1.65c.45.44,1.17.66,2.14.66.79,0,1.5-.17,2.13-.5.63-.34,1.07-.79,1.32-1.35.25-.57.38-1.62.38-3.16v-8.36Z"/>
</svg>